<svg id="Layer_1" data-name="Layer 1" xmlns="http://www.w3.org/2000/svg" viewBox="0 0 465.75 995.21"><defs><style>.cls-1{fill:#ba9bc9;}.cls-2{fill:#c6a5d6;}.cls-3,.cls-4{fill:#7f6a89;}.cls-3{stroke:#fff;stroke-miterlimit:10;stroke-width:18px;}</style></defs><title>Lins_Icon</title><path class="cls-1" d="M380.14,127.74" transform="translate(-7.93 -3.5)"/><path class="cls-1" d="M461.16,203.6c-9.72-14.57-16.4-9.52-40.73-36.71-17.91-20-21.53-30.57-54.3-36.2h0c-.27-.24-19.75-17-30.77-19.73-8.1-2-23.35-6.42-37.24-5.79-5.43.24-22.14,8-25.84,12L260.9,129.38a52,52,0,0,0-12.41,23.07l-4.79,19.72a27.34,27.34,0,0,0,6.62,25.14l9.32,10a51,51,0,0,0,19.88,13.11l36.93,13.36h0l2.09.35a.06.06,0,0,1,.05.09,155.75,155.75,0,0,1-261.86,48,.07.07,0,0,0-.11,0,78.51,78.51,0,0,0-8.53,16.5C35.47,332,39,440.4,74.85,464.29c7.82,5.21,54.6,6.29,59.29-2.22,13.3-24.08-29.51-73.95,17.74-58,19,6.38,58.26,20.23,124.16-7.46,33-13.85,18.82,62.49,34.47,66.42,8,1.09,56,4.81,61.52-9.33,3.38-8.67-8.87-51.05-17.13-60.15-41-45.29-19.89-144.4,32.14-167.95h0c26.19-7.79,61-16.41,55.08,13.13-3,14.86-28.83,73.95-16.18,80.94,6.58,3.65,23.32-10.17,24.08-20.31C453.24,256.7,480.45,232.52,461.16,203.6Zm-78.33-52.88a15.72,15.72,0,0,1,13,16.57c-.7,9.52-10.46,12.63-21,10.92a12.33,12.33,0,0,1-10.39-12.16A15.71,15.71,0,0,1,382.83,150.72Z" transform="translate(-7.93 -3.5)"/><path class="cls-2" d="M137.73,411.41c-1-2,2.05-3.74,3.55-2,10.78,12.41,31.19,34.36,47.45,42.78a1.83,1.83,0,0,1-.76,3.46c-11.95.06-30.24.13-38.18,0a2.06,2.06,0,0,1-2-2.14C147.88,449.29,155,447.39,137.73,411.41Z" transform="translate(-7.93 -3.5)"/><path class="cls-2" d="M364.35,373c-9-13.45-17.17-35.23-9.67-39.7s18.77,13.11,22.1,20.87c21.07,49.08,50.06,77.14,94,92.15,2.61.89,4.21,6.08,1.46,6.13-9.39.15-19.37,1.71-33.68.83-24.09-1.5-46.13,10.3-48.54-7.73C387.13,424,387.29,407.4,364.35,373Z" transform="translate(-7.93 -3.5)"/><path class="cls-1" d="M27.33,996.53" transform="translate(-7.93 -3.5)"/><path class="cls-1" d="M265.22,988.13c-5.52,14.14-53.52,10.42-61.52,9.33" transform="translate(-7.93 -3.5)"/><path class="cls-1" d="M90.48,772.85" transform="translate(-7.93 -3.5)"/><path class="cls-1" d="M324.25,88.71" transform="translate(-7.93 -3.5)"/><path class="cls-3" d="M331.06,169.57A157.07,157.07,0,1,1,174,12.5,157.39,157.39,0,0,1,331.06,169.57Z" transform="translate(-7.93 -3.5)"/><circle class="cls-4" cx="378.28" cy="156.46" r="4.72"/><path class="cls-1" d="M43.25,280c1.13-1,2.76.37,1.92,1.55-6,8.51-16.44,24.3-18.94,35-.26,1.1-2.6,1.35-2.35.3,2.2-9.13-1-17-6.77-21.09-.55-.39.26-1.34,1-1.56C20.81,293.45,23.3,297,43.25,280Z" transform="translate(-7.93 -3.5)"/></svg>