<svg xmlns="http://www.w3.org/2000/svg" viewBox="0 0 440 440"><defs><style>.cls-1{fill:#554063;}.cls-2{fill:#fff;}</style></defs><title>Story_Logo2</title><g id="Layer_1" data-name="Layer 1"><circle class="cls-1" cx="220" cy="220" r="220"/></g><g id="Layer_2" data-name="Layer 2"><path class="cls-2" d="M170.27,123q-2.37,36.84-4.75,73.69c-.34,5.29-.5,9-2.5,14,.54-1.35-.37.74-.5,1-.65,1.24-1.31,2.46-2,3.67-1.28,2.18-2.67,4.3-4.1,6.39-6.25,9.15-13.07,18.36-19.73,26.91-5,6.38-6.22,15,0,21.21,5.18,5.19,16.21,6.43,21.21,0,8.07-10.34,16-20.81,23.46-31.59,7.74-11.16,12.43-22.39,13.76-36,2.56-26.33,3.46-52.92,5.16-79.32.5-7.85-7.26-15.35-15-15-8.56.38-14.46,6.6-15,15Z" transform="translate(-30 -30)"/><path class="cls-2" d="M236.88,122.14a1290.48,1290.48,0,0,0-5.58,180.18c.31,7.84,6.68,15.38,15,15,7.87-.35,15.33-6.6,15-15a1290.48,1290.48,0,0,1,5.58-180.18c.79-7.84-7.47-15.34-15-15-8.81.39-14.15,6.61-15,15Z" transform="translate(-30 -30)"/><path class="cls-2" d="M305.43,118.06a1451.49,1451.49,0,0,0,3.13,219q2.79,30.84,6.89,61.56c1,7.75,6.16,15.4,15,15,7.24-.32,16.11-6.67,15-15a1453.42,1453.42,0,0,1-12.51-218.67q.58-31,2.49-61.88c.48-7.84-7.24-15.34-15-15-8.54.39-14.49,6.6-15,15Z" transform="translate(-30 -30)"/></g></svg>